PathFileType	4	(X/Y/Z)	s07c0302.trc
DataRate	CameraRate	NumFrames	NumMarkers	Units	OrigDataRate	OrigDataStartFrame	OrigNumFrames
200	200	4	48	mm	200	1000	2000
Frame#	Time	racr			lacr			c7			jug			rlel			rdr			llel			ldr			s2			lic			ric			lasi			rasi			rpsi			lpsi			rgt			lgt			rth1			rth2			rth3			rth4			rlfc			rmfc			rsh1			rsh2			rsh3			rsh4			rlmal			rcal			rtoe			rmt5			lth1			lth2			lth4			lth3			llfc			lmfc			lsh1			lsh2			lsh3			lsh4			llmal			lcal			ltoe			lmt5			SBIKE			LBIKE			RBIKE			
		X1	Y1	Z1	X2	Y2	Z2	X3	Y3	Z3	X4	Y4	Z4	X5	Y5	Z5	X6	Y6	Z6	X7	Y7	Z7	X8	Y8	Z8	X9	Y9	Z9	X10	Y10	Z10	X11	Y11	Z11	X12	Y12	Z12	X13	Y13	Z13	X14	Y14	Z14	X15	Y15	Z15	X16	Y16	Z16	X17	Y17	Z17	X18	Y18	Z18	X19	Y19	Z19	X20	Y20	Z20	X21	Y21	Z21	X22	Y22	Z22	X23	Y23	Z23	X24	Y24	Z24	X25	Y25	Z25	X26	Y26	Z26	X27	Y27	Z27	X28	Y28	Z28	X29	Y29	Z29	X30	Y30	Z30	X31	Y31	Z31	X32	Y32	Z32	X33	Y33	Z33	X34	Y34	Z34	X35	Y35	Z35	X36	Y36	Z36	X37	Y37	Z37	X38	Y38	Z38	X39	Y39	Z39	X40	Y40	Z40	X41	Y41	Z41	X42	Y42	Z42	X43	Y43	Z43	X44	Y44	Z44	X45	Y45	Z45	X46	Y46	Z46	X47	Y47	Z47	X48	Y48	Z48	
1000	5.0000	801.307395	1388.835345	-161.778961	757.768756	1389.916057	-469.764281	781.834913	1443.255680	-316.824988	716.093353	1303.298316	-323.926772	594.334996	1148.583717	12.656860	727.588304	910.409997	-71.956429	534.425087	1117.168325	-537.193833	716.940321	916.781356	-427.226543	189.348600	1310.018494	-195.198893	313.749226	1346.426031	-373.484970	397.554182	1308.417504	-99.620478	327.509967	1272.377302	-363.404937	399.585839	1252.433800	-125.633276	238.072254	1338.861877	-152.918121	216.562833	1359.081341	-257.246301	330.590720	1177.241342	-53.263071	228.664864	1207.117634	-396.544252	395.361481	1034.082234	-85.066387	432.768296	957.854200	-109.266030	435.856559	872.724653	-110.182383	459.519012	968.247846	-131.954526	428.597377	733.367814	-135.428606	390.067739	728.384104	-234.251517	318.225581	643.054774	-94.022433	269.575963	570.378479	-100.961286	193.283385	528.114849	-86.427636	275.561612	559.390088	-140.795447	87.581657	439.121798	-73.781831	24.528477	482.591711	-103.146675	98.228666	201.494170	-130.626895	47.204431	262.787894	-56.914359	293.669877	1096.876804	-416.594815	363.475531	1045.494809	-433.323350	392.469190	1068.399066	-433.490079	400.720485	964.673355	-436.036019	500.144678	813.359688	-424.640958	506.094485	794.715349	-327.268753	415.330245	686.798179	-431.913515	392.530617	607.105521	-408.143025	326.454427	545.309698	-405.896180	403.114703	609.204046	-366.473592	246.956272	438.219854	-395.072725	172.979090	411.062303	-359.680003	454.663793	344.653344	-371.522306	367.960339	332.539154	-433.779644	-261.830031	967.000356	-239.088373	-83.063000	79.008083	-437.169327	-82.812653	79.449454	-39.690132	
1001	5.0050	802.488018	1389.346561	-162.918765	758.688604	1384.530404	-471.218628	782.691232	1440.676502	-318.446575	717.443533	1300.322087	-322.879389	596.472512	1149.547276	13.238192	727.147145	909.901460	-71.248793	531.481178	1113.600911	-535.533218	716.492614	916.149619	-425.934207	189.614425	1309.362738	-194.723039	314.264951	1343.713810	-373.854203	398.141609	1307.975721	-100.171888	326.717826	1269.649821	-363.799354	399.655457	1251.864731	-125.780976	238.570810	1338.309407	-153.091105	216.605990	1357.705357	-257.509717	331.531359	1177.313360	-52.450332	227.230225	1204.216456	-395.323929	396.582506	1034.819128	-84.558096	434.362027	958.902317	-108.413241	438.824248	873.730403	-108.617395	461.461948	969.349190	-131.032505	434.482856	734.505763	-136.040540	394.791543	729.645272	-234.170338	321.034692	648.179215	-94.773911	271.098561	576.590049	-100.840181	193.577554	536.597621	-86.798360	276.243068	564.918555	-140.692825	85.742332	449.635245	-74.067518	22.905113	493.303510	-103.514971	97.936216	212.619176	-130.155620	45.960283	273.624565	-56.529640	290.333656	1093.064755	-415.447888	358.949354	1040.215254	-432.336614	388.433194	1062.528371	-432.923795	394.547873	958.616285	-434.722764	491.989888	806.831107	-423.335407	498.120247	787.556433	-326.278587	410.467027	679.188700	-431.423797	388.728806	598.814976	-407.300538	324.138248	535.290291	-405.670839	397.619622	601.333644	-365.964928	245.896155	426.598203	-397.146895	171.705173	398.224824	-358.949858	454.634097	334.511186	-371.585634	367.895803	320.687856	-432.961340	-261.804542	967.083989	-238.392588	-83.163477	79.039124	-437.106212	-83.003730	79.298693	-39.589614	
1002	5.0100	803.351004	1390.374569	-163.863955	759.798376	1379.467691	-472.003522	783.515820	1438.126756	-319.753950	718.660338	1297.471723	-321.205461	598.474165	1150.473612	13.795440	726.758318	909.639137	-70.535238	528.636680	1110.234954	-534.031189	716.209660	915.493160	-424.623418	189.824979	1308.320446	-194.553618	314.884821	1340.810007	-374.304001	398.650376	1307.461541	-100.861996	326.303027	1266.800805	-364.276377	399.586292	1251.108089	-125.936286	239.450379	1337.309678	-154.389370	216.507419	1355.929717	-257.835452	332.054318	1177.259102	-51.755820	226.131457	1201.380857	-394.276068	397.388786	1035.225957	-83.660656	435.887921	959.632286	-107.163469	441.349524	874.596757	-106.813956	462.919366	970.241792	-129.785406	440.486519	735.809372	-136.238645	400.475714	730.621339	-234.127336	324.348084	653.114224	-95.435704	272.544160	582.573486	-101.180265	194.217026	544.778767	-87.330583	278.115726	570.298593	-140.670644	84.189058	460.360418	-74.466417	21.353748	504.305830	-103.890189	98.512875	224.040837	-129.799147	45.653842	284.831519	-56.374947	287.266850	1089.443641	-414.536706	354.546027	1034.952435	-431.411090	384.460834	1056.500452	-432.494926	388.387069	952.589154	-433.381217	484.081338	800.292735	-421.757323	490.969420	780.661337	-324.053499	404.756900	671.886615	-430.606740	384.491974	591.050436	-406.826560	321.279290	526.172218	-405.517634	393.187711	593.602827	-365.268851	244.983871	415.166829	-397.563669	169.683399	387.587025	-360.101962	454.214644	324.600534	-372.427612	367.261653	309.518873	-432.915168	-261.777339	967.129559	-237.706945	-83.246264	79.082954	-437.060217	-83.086003	79.273875	-39.559910	
1003	5.0150	804.000204	1391.619409	-164.455282	760.927982	1374.894823	-472.327988	784.313228	1435.781769	-321.006547	719.541894	1295.032739	-319.381074	600.229547	1151.450575	14.249305	726.458465	909.442442	-69.820037	526.120655	1107.142440	-532.816188	716.846859	916.031829	-425.545575	189.993965	1307.158065	-194.769022	315.613442	1337.734515	-374.834760	398.891836	1306.921184	-101.532498	326.124784	1263.961363	-365.073353	399.000051	1250.497682	-126.004524	239.151796	1336.838620	-153.987907	216.626362	1354.038851	-258.723297	332.062545	1177.176797	-51.321044	225.325001	1198.554260	-393.556484	397.914362	1035.452630	-82.498518	437.273912	960.186576	-105.578017	443.715150	875.197020	-104.764229	464.113553	971.043799	-128.408845	446.715664	737.354701	-136.228216	406.860729	731.883461	-234.079771	328.148818	657.927543	-95.833438	274.637520	588.706354	-101.424746	195.277960	553.002080	-87.844946	281.016594	575.824241	-140.656798	83.146139	471.324115	-75.099902	19.992008	515.284071	-104.725209	100.094034	235.765582	-129.405307	46.220299	296.188653	-56.273081	284.418881	1085.762373	-413.635446	350.322156	1029.591775	-430.479469	380.763132	1050.515359	-431.893020	382.389720	946.531983	-431.834401	476.194035	793.434772	-419.892583	482.008291	774.557765	-323.577662	398.060703	664.825772	-429.592517	379.798429	583.445579	-406.670052	317.633641	517.469036	-405.066842	388.598781	585.691727	-365.209165	243.643405	404.199407	-397.552596	168.298896	376.096551	-360.110831	453.021675	313.284168	-370.997451	366.340083	298.701980	-432.542861	-261.868119	967.115432	-237.384577	-83.270859	79.095130	-437.023536	-83.111980	79.239419	-39.523318	
